<svg width="150" height="19" viewBox="0 0 150 19" fill="none" xmlns="http://www.w3.org/2000/svg">
<path d="M1.99395 1.46672H0.664308C0.498103 0.313218 0.581205 0.06604 4.48702 0.06604H9.97179C17.7834 0.06604 21.1075 3.52653 21.1075 9.29402C21.1075 14.8143 17.9496 18.522 10.2211 18.522H0.0825906C-0.000511961 18.1925 -0.000511961 17.7805 0.0825906 17.4509C2.99117 17.2861 3.48979 17.1213 3.48979 15.3087V2.62021C3.48979 1.6315 3.15738 1.46672 1.99395 1.46672ZM17.5341 9.7884C17.5341 4.68003 14.8748 1.6315 9.63933 1.6315H6.81389V15.0615C6.81389 16.7093 7.39561 16.9565 9.88867 16.9565C14.5424 17.039 17.5341 15.5559 17.5341 9.7884Z" fill="#1D1D1B"/>
<path d="M34.1547 0.230957C34.2378 0.807705 34.404 1.30207 34.8195 2.20838L41.0522 16.2976C41.3846 16.9567 41.6339 17.2039 43.0466 17.2039H43.6284C43.7945 17.9454 43.6284 18.4397 42.9636 18.4397H34.2378C34.1547 18.1926 34.1547 17.7806 34.2378 17.3686C37.1463 17.2862 37.4788 17.0391 37.1463 16.3799L35.4844 12.3426H28.5037L27.4234 15.2264C26.8417 16.7919 26.8417 17.2039 28.2545 17.2039H30.5812C30.7475 17.9454 30.5812 18.4397 29.9164 18.4397H22.1879C22.1048 18.1926 22.1048 17.7806 22.1879 17.3686C24.2655 17.1214 24.5148 16.9567 25.2628 15.2264L30.5812 2.70274C31.4954 0.64292 31.8279 0.230957 33.0744 0.230957H34.1547ZM34.8195 10.942L31.911 4.02102L29.0854 10.942H34.8195Z" fill="#1D1D1B"/>
<path d="M54.3492 0.560791C54.4323 0.807969 54.4323 1.30232 54.3492 1.6319C52.0223 1.79668 51.6899 2.29104 51.6899 3.44453V16.133C51.6899 17.0394 51.9392 17.2865 53.1027 17.2865H54.5985C54.7647 18.028 54.6816 18.5224 53.9337 18.5224H45.7065C45.6234 18.2752 45.6234 17.8632 45.7065 17.4513C47.8672 17.1217 48.3658 16.8745 48.3658 15.7211V2.95018C48.3658 1.96147 48.1165 1.79668 46.8699 1.79668H45.5403C45.3741 1.13754 45.5403 0.560791 46.7037 0.560791H54.3492Z" fill="#1D1D1B"/>
<path d="M85.43 0.560791C85.5131 0.890362 85.5131 1.21993 85.43 1.6319C82.937 1.79668 82.7708 2.20865 82.8539 3.03257L84.1835 16.133C84.2666 16.9569 84.6821 17.0394 86.7597 17.3689C86.8428 18.1104 86.7596 18.6048 86.0117 18.6048H76.455C76.3719 18.2752 76.3719 17.9457 76.455 17.5337L77.9509 17.4512C80.1946 17.2865 80.6101 17.0394 80.4439 15.7211L79.1974 3.93889L72.7154 17.4512C72.2167 18.44 72.0506 18.6048 71.3858 18.6048L63.9065 4.02129L63.0755 16.0506C62.9924 17.1217 62.9924 17.3689 65.8179 17.3689H67.3137C67.4799 18.1104 67.3968 18.6048 66.6489 18.6048H57.7569C57.6738 18.2752 57.6738 17.9457 57.7569 17.5337C60.7486 17.3689 60.998 16.8745 61.0811 15.7211L62.1613 3.11497C62.2445 2.29104 62.0782 1.96147 59.419 1.87907C59.2528 1.30232 59.419 0.643183 60.5824 0.643183H66.0672L72.8815 13.4964L79.1143 0.643183H85.43V0.560791Z" fill="#1D1D1B"/>
<path d="M100.304 0.560791C100.387 0.807969 100.387 1.30232 100.304 1.6319C97.4783 1.79668 96.8972 2.04386 96.8972 3.77411V15.6386C96.8972 16.5449 97.3953 16.7922 98.1434 16.7922H99.8887C101.883 16.7922 102.132 16.6274 103.295 14.2379L104.043 12.5901C104.792 12.5901 105.207 12.9197 104.958 13.7436C104.376 15.3091 103.877 16.8745 103.545 18.5224H90.3317C90.2486 18.1929 90.2486 17.8632 90.3317 17.4513C92.991 17.2865 93.5728 16.9569 93.5728 15.2267V2.95018C93.5728 1.96147 93.2403 1.79668 92.0769 1.79668H90.7473C90.5811 1.13754 90.7473 0.560791 91.9107 0.560791H100.304Z" fill="#1D1D1B"/>
<path d="M122.244 0.56066C122.327 1.79655 122.494 3.03244 122.66 4.18594C122.826 5.00987 122.494 5.50422 121.58 5.42183L121.33 4.18594C120.832 2.53808 120.333 2.12612 118.838 2.12612H114.516V8.96471H117.342C118.173 8.96471 118.339 8.71753 118.422 7.976L118.588 6.57533H118.921C119.419 6.57533 119.752 6.74011 119.668 7.56403C119.585 9.21189 119.585 11.1069 119.668 12.8372C119.419 12.9195 119.004 13.002 118.755 12.8372C118.422 10.7774 118.09 10.5302 117.342 10.5302H114.516V15.2265C114.516 16.2153 114.765 16.6273 116.593 16.6273H118.921C120.915 16.6273 121.164 16.4625 122.327 14.073L123.076 12.4252C123.824 12.4252 124.239 12.7547 123.99 13.5787C123.408 15.1442 122.909 16.7096 122.577 18.3575H107.702C107.619 18.0279 107.619 17.6983 107.702 17.2863C110.527 17.1216 111.109 16.9568 111.109 15.1442V2.78526C111.109 1.79655 110.859 1.63176 109.613 1.63176H108.283C108.2 0.972623 108.283 0.395874 109.447 0.395874H122.244V0.56066Z" fill="#1D1D1B"/>
<path d="M128.892 1.79655H127.563C127.397 1.13741 127.563 0.56066 128.643 0.478267C129.973 0.395874 131.552 0.395874 135.375 0.395874C140.527 0.395874 143.436 2.86766 143.436 6.49293C143.436 8.71754 142.023 10.5302 139.779 11.5189C139.779 11.5189 141.774 13.3315 142.854 14.1555C146.427 16.9568 147.591 17.204 149.918 17.204C150.167 18.1103 149.502 18.8518 146.593 18.8518C144.101 18.8518 142.439 18.2751 140.444 16.6272C139.53 15.8857 138.616 14.8146 137.868 13.5787C137.203 12.3428 137.12 12.2604 135.458 12.2604H133.796V16.2153C133.796 16.9568 134.045 17.2863 135.458 17.2863H136.871C136.954 18.0279 136.871 18.5223 136.123 18.5223H127.646C127.563 18.1927 127.563 17.8631 127.646 17.4511C129.973 17.2863 130.555 17.0392 130.555 15.3913V3.03244C130.389 1.96134 130.057 1.79655 128.892 1.79655ZM135.042 10.7774C137.702 10.7774 139.862 10.3654 139.862 6.74011C139.862 3.11484 137.702 1.96134 134.626 1.96134H133.796V10.7774H135.042Z" fill="#1D1D1B"/>
</svg>
