<svg width="112" height="25" viewBox="0 0 112 25" fill="none" xmlns="http://www.w3.org/2000/svg">
<path d="M0 12.3129V24.6161H2.44H4.88V19.6161V14.5866L6.75 14.6456L8.62 14.7047L11.49 19.6456L14.34 24.5866L17.15 24.6161C18.67 24.6161 19.93 24.5767 19.93 24.5177C19.93 24.4586 18.63 22.1751 17.06 19.4488C15.47 16.7224 14.15 14.4488 14.11 14.3799C14.07 14.3011 14.55 14.0059 15.2 13.6811C16.69 12.9527 18.19 11.5846 18.83 10.3444C19.72 8.58262 19.77 5.48223 18.91 3.83853C18.02 2.13578 15.94 0.698765 13.65 0.21648C13 0.0786858 10.13 -0.0098896 6.29 -0.0098896H0V12.3129ZM12.95 4.61609C14.07 5.11806 14.64 6.01373 14.64 7.31295C14.64 8.51373 14.13 9.43892 13.18 9.95074C12.61 10.246 11.9 10.3248 8.71 10.374L4.89 10.4527V7.32279V4.19286H8.5C11.61 4.21255 12.22 4.27161 12.95 4.61609Z" fill="black"/>
<path d="M77.65 12.5197V24.626H79.99H82.33V12.5197V0.413372H79.99H77.65V12.5197Z" fill="black"/>
<path d="M103.5 11.7517C103.56 21.0824 103.56 21.1217 104.03 22.0568C104.56 23.1198 105.82 24.3205 106.84 24.7339C107.28 24.9111 108.3 25.0095 109.76 25.0095H112V23.0115V21.0135H110.7C109.71 21.0135 109.3 20.915 108.87 20.5902L108.34 20.1867V15.482V10.8068H110.17H112V8.90716V7.00755H110.17H108.34V4.70441V2.40126H105.88H103.44L103.5 11.7517Z" fill="black"/>
<path d="M26.18 6.98819C24.53 7.52953 23.41 8.21851 22.22 9.44882C21 10.748 20.43 11.752 20.02 13.4547C18.93 18.0217 20.93 22.3917 25 24.2913C26.26 24.8917 26.42 24.9213 28.96 24.9213C31.23 24.9213 31.77 24.8622 32.78 24.4488C34.2 23.8878 36.1 22.2441 36.85 20.8858L37.38 19.9114L35.75 18.9764C34.86 18.4547 34.05 18.0413 33.96 18.0413C33.88 18.0413 33.53 18.4449 33.17 18.9173C32.36 20.0787 31.26 20.7776 29.92 21.0433C28.73 21.2697 27.86 21.1417 26.83 20.6201C25.61 20.0197 24.39 18.4449 24.39 17.4409C24.39 17.0374 24.47 17.0374 31.1 17.0374H37.81V15.3642C37.81 11.5256 36.01 8.69095 32.63 7.22442C31.18 6.55512 27.82 6.4567 26.18 6.98819ZM31.67 10.8957C32.2 11.2598 32.71 11.8307 33.03 12.5L33.56 13.5236L29.05 13.5827C26.57 13.6122 24.5 13.5827 24.44 13.5236C24.16 13.248 25.62 11.4567 26.64 10.8563C27.68 10.2264 27.86 10.1968 29.31 10.2559C30.59 10.315 30.96 10.3937 31.67 10.8957Z" fill="black"/>
<path d="M63.04 6.91931C60.42 7.64766 58 9.54725 57.01 11.6831C56.3 13.248 55.99 15.6496 56.3 17.4606C57.09 22.1949 60.64 25.0295 65.85 25.0295C68.9 25.0295 70.93 24.3012 72.9 22.5689C74.04 21.5453 74.81 20.2658 75.31 18.5433C75.74 17.0768 75.64 13.8091 75.13 12.4114C74.29 10.1477 72.08 8.0512 69.58 7.17521C68.03 6.61419 64.61 6.48624 63.04 6.91931ZM67.99 11.3878C70.84 12.628 71.78 16.3681 69.86 18.8484C68.5 20.6103 65.63 21.2697 63.7 20.2756C62.65 19.7146 61.5 18.4744 61.18 17.5099C60.77 16.3091 61.01 14.1732 61.65 13.2382C63.09 11.0925 65.59 10.374 67.99 11.3878Z" fill="black"/>
<path d="M37.67 7.29334C37.73 7.43114 39.36 11.3977 41.29 16.0926L44.81 24.6359L47.02 24.5768L49.23 24.5178L52.66 16.2107C54.55 11.6437 56.15 7.70673 56.22 7.44098L56.35 6.97839L53.87 7.03744L51.37 7.09649L49.21 12.7363C48.03 15.8367 47 18.317 46.94 18.2382C46.86 18.1595 45.86 15.6004 44.7 12.5394L42.59 6.99807H40.07C38.04 7.01775 37.58 7.07681 37.67 7.29334Z" fill="black"/>
<path d="M84.76 12.4804C84.76 15.5611 84.86 18.4548 84.99 19.1241C85.43 21.565 86.76 23.2481 89.02 24.3012C90.32 24.9016 90.47 24.9312 93.11 24.9312C95.69 24.9312 95.93 24.8918 97.07 24.3701C99.33 23.3367 100.77 21.506 101.21 19.1339C101.34 18.4745 101.44 15.5709 101.44 12.4902V7.02761H99.13H96.79L96.73 12.4705C96.67 17.6969 96.65 17.9725 96.2 18.7697C95.55 19.9705 94.45 20.4922 92.81 20.3937C91.35 20.315 90.51 19.8229 89.94 18.691C89.6 18.0119 89.56 17.3327 89.5 12.4607L89.44 7.01777H87.1H84.79V12.4804H84.76Z" fill="black"/>
</svg>
