<svg width="138" height="53" viewBox="0 0 138 53" fill="none" xmlns="http://www.w3.org/2000/svg">
<path d="M22.174 9.86387C21.7076 9.47246 21.2413 9.47246 20.6972 9.94213C18.1325 10.8816 13.3137 14.1696 12.1479 13.9348C14.0909 11.2731 16.1894 8.68958 18.5988 6.34098C19.6091 4.93181 18.2878 4.61867 18.1325 3.83581C17.8215 2.81808 17.977 1.72207 18.2878 0.78263C18.7542 -0.000236265 17.8215 -0.15681 17.2775 0.156337C10.982 6.73241 5.61928 13.3085 0.645113 19.9628C-0.132101 20.9805 0.0233421 21.7634 0.567391 22.3897L3.20992 25.756C3.75397 26.6955 4.6089 26.852 5.697 26.1475L14.0132 20.5109C10.6712 25.9909 7.4846 32.1755 5.07523 39.691C3.98713 42.9008 7.01827 47.7545 11.1375 52.8432C11.6038 53.3912 12.5365 52.8432 11.9147 51.7472C7.95093 44.31 11.2152 32.8018 23.9615 15.8136C24.5833 15.1091 24.8165 14.4045 24.3501 13.6999L22.174 9.86387Z" fill="#1D1D1B"/>
<path d="M54.9719 19.6491L56.06 15.4217C56.2932 14.7954 56.7595 14.4822 57.3813 14.404H61.1118H62.1999L62.8217 12.4468H61.1896L56.06 12.525C54.9719 12.4468 54.117 12.8383 53.5729 14.0908L50.7749 25.051L49.6868 29.3567C49.376 30.2961 49.6091 31.079 50.7749 31.3922C50.8526 31.3922 51.0081 31.4704 51.0858 31.4704H57.6144L58.1584 29.5133H53.1843C52.7957 29.2001 52.4848 29.2001 52.6402 28.2607L53.8061 23.6418C53.9615 23.0938 54.2724 22.7024 54.8164 22.7024H58.6248L59.1689 21.0583H55.2827C54.8164 20.7452 54.7387 20.2754 54.9719 19.6491Z" fill="#1D1D1B"/>
<path d="M62.666 28.2615C65.2308 18.1626 63.6763 24.1906 66.008 15.4225C66.2412 14.7962 66.7075 14.483 67.3293 14.4048H70.8267H72.0703L72.5366 12.8391L72.6921 12.3693H72.5366H70.8267H65.9303C64.8421 12.291 63.9095 12.6824 63.4432 13.935L61.1116 23.0946L59.5572 29.1227C59.2462 30.2186 59.4794 31.0015 60.9561 31.2364H61.0338H67.4847L68.0288 29.2792H63.0546C62.8214 29.2792 62.5105 29.201 62.666 28.2615Z" fill="#1D1D1B"/>
<path d="M37.6406 22.3114L33.9099 19.0233C33.1328 18.0839 33.9099 14.561 35.5422 14.4827H39.6613H41.0603L41.5267 12.6039H39.6613H34.5317C32.3555 12.9953 30.5679 17.5359 31.4229 19.7279L35.2312 23.1725C35.7753 23.7988 35.853 24.3468 35.853 24.9731L34.7649 28.7309C34.5317 29.6703 33.9099 29.6703 33.1328 29.6703H28.0032L27.5368 31.4709H35.0758C36.2416 31.3926 36.9411 30.688 37.0966 29.5137L38.3401 24.7382C38.651 23.6423 38.2624 22.8594 37.6406 22.3114Z" fill="#1D1D1B"/>
<path d="M50.2306 21.7632L50.7746 19.4929L51.9404 14.7174C52.0958 13.4648 51.7072 12.7603 50.7746 12.6037C50.6192 12.5254 50.4637 12.5254 50.3083 12.5254H42.9247L39.7382 24.5032L37.8728 31.4708H39.7382H40.4377L45.0232 14.4825H48.0543C48.6761 14.6391 49.0648 14.9523 49.0648 15.5785L47.8212 20.7454C47.6657 21.6066 47.1217 22.1546 46.1891 22.4677L43.8574 22.9375L43.4687 24.7381L48.5207 23.7987C49.3756 23.5638 50.0751 22.9375 50.2306 21.7632Z" fill="#1D1D1B"/>
<path d="M77.1228 12.5254H74.0916L72.5372 18.2403L70.8273 24.5815L68.962 31.4708H70.8273H71.9932L72.5372 29.357L77.1228 12.5254Z" fill="#1D1D1B"/>
<path d="M104.014 12.5254H102.149H101.061L95.8533 31.4708H98.8849L102.149 19.5712L104.014 12.5254Z" fill="#1D1D1B"/>
<path d="M117.304 23.6426C117.46 23.0946 117.771 22.7032 118.315 22.7032H122.123L122.667 21.0591H118.703C118.237 20.746 118.159 20.2763 118.392 19.65L119.558 15.4225C119.792 14.7962 120.257 14.483 120.879 14.4048H124.299H125.699L126.086 13.1522L126.319 12.3693H126.086H124.377H119.636C118.548 12.291 117.615 12.6824 117.149 13.935L114.35 24.8952L113.263 29.201C112.952 30.1404 113.185 30.9233 114.35 31.2364C114.428 31.2364 114.584 31.3147 114.661 31.3147H121.19L121.734 29.3575H116.682C116.294 29.0443 115.983 29.0443 116.138 28.1049L117.304 23.6426Z" fill="#1D1D1B"/>
<path d="M136.425 12.5254H127.486L126.01 17.8489L124.3 24.1901L122.357 31.3924H124.3H126.01H131.451C132.771 31.3142 133.549 30.6096 133.86 29.2787L137.902 14.1694C138.057 13.2299 137.513 12.6037 136.425 12.5254ZM134.637 15.9699L131.295 27.713C131.218 28.6524 130.596 29.2787 129.352 29.357H126.166C126.088 29.357 126.01 29.357 125.933 29.2787C125.622 29.1222 125.622 28.7307 125.777 28.3393L125.933 27.7912L129.896 14.2477H133.782C134.792 14.326 134.948 14.9523 134.637 15.9699Z" fill="#1D1D1B"/>
<path d="M104.635 28.0263L114.195 15.7353L114.894 14.7959C115.75 13.5433 115.439 12.6039 114.195 12.6039C114.195 12.6039 114.195 12.6039 114.117 12.6039H105.413L105.335 14.3261H110.698C111.397 14.3261 111.786 14.6393 111.32 15.2655L102.148 27.4L100.594 29.4354C99.9723 30.3749 100.206 31.0795 101.294 31.5492H102.148H110.775L111.32 29.4354H104.791C104.169 29.2789 104.091 28.496 104.635 28.0263Z" fill="#1D1D1B"/>
<path d="M82.4076 12.6037L72.5369 31.2359L72.3815 31.549H72.5369H74.7131L82.4853 16.6746L83.1847 16.7528L83.5734 20.902C83.8842 21.9197 83.1847 21.8415 82.9516 21.8415H80.7754L80.3868 23.4072L82.9516 23.4855C83.4179 23.5638 83.6511 23.7987 83.5734 24.2683L84.0397 31.3142H86.6822L85.5941 12.5254L82.4076 12.6037Z" fill="#1D1D1B"/>
<path d="M90.7238 28.0261L94.9205 12.5254H91.8898L87.3818 29.2004C87.3041 30.1399 87.6927 31.1575 88.936 31.4708H94.9205L95.5424 29.4353L91.268 29.357C90.7238 29.2787 90.4906 28.809 90.7238 28.0261Z" fill="#1D1D1B"/>
</svg>
